<svg width="24" height="24" viewBox="0 0 24 24" fill="none" xmlns="http://www.w3.org/2000/svg">
<g clip-path="url(#clip0_2198_914)">
<rect x="1.71484" y="6.85742" width="20.5714" height="13.7143" rx="2" fill="#666666"/>
<circle cx="12.0006" cy="13.7144" r="4.28572" fill="white"/>
<circle cx="12.0006" cy="13.714" r="2.57143" fill="#666666"/>
<path d="M7.06136 4.58294C7.38996 3.87879 8.09668 3.42871 8.87373 3.42871H15.1263C15.9033 3.42871 16.61 3.87879 16.9386 4.58294L18 6.85728H6L7.06136 4.58294Z" fill="#666666"/>
<path d="M10.2852 6.85714C10.2852 6.38376 10.6689 6 11.1423 6H12.8566C13.33 6 13.7137 6.38376 13.7137 6.85714C13.7137 7.33053 13.33 7.71429 12.8566 7.71429H11.1423C10.6689 7.71429 10.2852 7.33053 10.2852 6.85714Z" fill="white"/>
</g>
<defs>
<clipPath id="clip0_2198_914">
<rect width="24" height="24" fill="white"/>
</clipPath>
</defs>
</svg>
