<svg width="24" height="24" viewBox="0 0 24 24" fill="none" xmlns="http://www.w3.org/2000/svg">
<path d="M15.0655 6.1502C15.5629 6.39018 16.1607 6.18149 16.4007 5.68407C16.6406 5.18665 16.4319 4.58887 15.9345 4.34888L15.0655 6.1502ZM11.7196 4.5176L11.651 3.51996L11.7196 4.5176ZM8.06604 5.7606L8.6179 6.59453L8.6179 6.59453L8.06604 5.7606ZM5.44323 8.67099L4.55852 8.20486L4.55852 8.20486L5.44323 8.67099ZM15.9345 4.34888C14.5987 3.70438 13.125 3.41863 11.651 3.51996L11.7882 5.51525C12.9134 5.43789 14.0405 5.65567 15.0655 6.1502L15.9345 4.34888ZM11.651 3.51996C10.1771 3.62129 8.75412 4.10613 7.51418 4.92666L8.6179 6.59453C9.57242 5.96288 10.6629 5.59261 11.7882 5.51525L11.651 3.51996ZM7.51418 4.92666C6.27447 5.74703 5.25887 6.8756 4.55852 8.20486L6.32795 9.13712C6.87439 8.09998 7.66313 7.22635 8.6179 6.59453L7.51418 4.92666ZM4.55852 8.20486C3.85993 9.53076 3.49475 10.99 3.50001 12.5035L5.49999 12.4965C5.49589 11.3149 5.77974 10.1776 6.32795 9.13712L4.55852 8.20486Z" fill="#0066FF"/>
<path d="M5.29241 14.4706C4.8921 14.9906 4.1079 14.9906 3.70759 14.4706L2.27527 12.61C1.76907 11.9524 2.23784 11 3.06768 11L5.93232 11C6.76216 11 7.23092 11.9524 6.72473 12.61L5.29241 14.4706Z" fill="#0066FF"/>
<path d="M8.93453 17.8498C8.43711 17.6098 7.83933 17.8185 7.59934 18.3159C7.35936 18.8133 7.56805 19.4111 8.06547 19.6511L8.93453 17.8498ZM12.2804 19.4824L12.349 20.48L12.2804 19.4824ZM15.934 18.2394L15.3821 17.4055L15.3821 17.4055L15.934 18.2394ZM18.5568 15.329L19.4415 15.7951L19.4415 15.7951L18.5568 15.329ZM8.06547 19.6511C9.40134 20.2956 10.875 20.5814 12.349 20.48L12.2118 18.4848C11.0866 18.5621 9.95954 18.3443 8.93453 17.8498L8.06547 19.6511ZM12.349 20.48C13.8229 20.3787 15.2459 19.8939 16.4858 19.0733L15.3821 17.4055C14.4276 18.0371 13.3371 18.4074 12.2118 18.4848L12.349 20.48ZM16.4858 19.0733C17.7255 18.253 18.7411 17.1244 19.4415 15.7951L17.6721 14.8629C17.1256 15.9 16.3369 16.7737 15.3821 17.4055L16.4858 19.0733ZM19.4415 15.7951C20.1401 14.4692 20.5052 13.01 20.5 11.4965L18.5 11.5035C18.5041 12.6851 18.2203 13.8224 17.6721 14.8629L19.4415 15.7951Z" fill="#0066FF"/>
<path d="M18.7076 9.52937C19.1079 9.00936 19.8921 9.00936 20.2924 9.52937L21.7247 11.39C22.2309 12.0476 21.7622 13 20.9323 13L18.0677 13C17.2378 13 16.7691 12.0476 17.2753 11.39L18.7076 9.52937Z" fill="#0066FF"/>
</svg>
