<svg width="28" height="28" viewBox="0 0 28 28" fill="none" xmlns="http://www.w3.org/2000/svg">
<g clip-path="url(#clip0_2198_913)">
<rect x="2" y="8" width="24" height="16" rx="2" fill="#222222"/>
<circle cx="14" cy="16" r="5" fill="white"/>
<circle cx="14" cy="16" r="3" fill="#222222"/>
<path d="M8.32803 5.15423C8.65663 4.45008 9.36334 4 10.1404 4H17.8596C18.6367 4 19.3434 4.45008 19.672 5.15423L21 8H7L8.32803 5.15423Z" fill="#222222"/>
<path d="M12 8C12 7.44772 12.4477 7 13 7H15C15.5523 7 16 7.44772 16 8C16 8.55228 15.5523 9 15 9H13C12.4477 9 12 8.55228 12 8Z" fill="white"/>
</g>
<defs>
<clipPath id="clip0_2198_913">
<rect width="28" height="28" fill="white"/>
</clipPath>
</defs>
</svg>
