<svg width="18" height="18" viewBox="0 0 18 18" fill="none" xmlns="http://www.w3.org/2000/svg">
<rect x="1.28467" y="5.14258" width="15.4286" height="10.2857" rx="2" fill="#AAAAAA"/>
<circle cx="8.99895" cy="10.2856" r="3.21429" fill="white"/>
<circle cx="8.99888" cy="10.286" r="1.92857" fill="#AAAAAA"/>
<path d="M5.16038 3.72552C5.48899 3.02137 6.1957 2.57129 6.97275 2.57129H11.0253C11.8023 2.57129 12.5091 3.02137 12.8377 3.72552L13.499 5.14272H4.49902L5.16038 3.72552Z" fill="#AAAAAA"/>
<path d="M7.71338 5.14286C7.71338 4.78782 8.0012 4.5 8.35624 4.5H9.64195C9.99699 4.5 10.2848 4.78782 10.2848 5.14286C10.2848 5.4979 9.99699 5.78571 9.64195 5.78571H8.35624C8.0012 5.78571 7.71338 5.4979 7.71338 5.14286Z" fill="white"/>
</svg>
